<svg xmlns="http://www.w3.org/2000/svg" width="1200" height="820" viewBox="0 0 1200 820" role="img" aria-labelledby="title desc">
  <title id="title">Import a folder screenshot</title>
  <desc id="desc">iPad Serve project list with the import folder button highlighted.</desc>
  <rect width="1200" height="820" fill="#eef4f5"/>
  <rect x="42" y="42" width="1116" height="736" rx="34" fill="#ffffff"/>
  <rect x="42" y="42" width="1116" height="70" rx="34" fill="#102b3a"/>
  <circle cx="94" cy="77" r="11" fill="#f0bd55"/>
  <circle cx="132" cy="77" r="11" fill="#52b6bf"/>
  <circle cx="170" cy="77" r="11" fill="#ffffff" opacity=".8"/>
  <text x="604" y="83" fill="#dbe9ec" font-family="-apple-system,BlinkMacSystemFont,Segoe UI,sans-serif" font-size="22" text-anchor="middle" font-weight="700">iPad Serve</text>

  <rect x="42" y="112" width="338" height="666" fill="#f7f9f8"/>
  <text x="86" y="176" fill="#12202a" font-family="-apple-system,BlinkMacSystemFont,Segoe UI,sans-serif" font-size="38" font-weight="800">Projects</text>
  <rect x="274" y="137" width="64" height="64" rx="20" fill="#087987"/>
  <path d="M292 170h28M306 156v28" stroke="#fff" stroke-width="7" stroke-linecap="round"/>
  <path d="M270 132h72v74h-72z" fill="none" stroke="#d99a28" stroke-width="8" rx="18"/>
  <text x="226" y="238" fill="#d99a28" font-family="-apple-system,BlinkMacSystemFont,Segoe UI,sans-serif" font-size="18" font-weight="800" text-anchor="middle">Tap import</text>

  <rect x="78" y="276" width="264" height="92" rx="16" fill="#ffffff" stroke="#d8e0e4"/>
  <text x="110" y="316" fill="#12202a" font-family="-apple-system,BlinkMacSystemFont,Segoe UI,sans-serif" font-size="23" font-weight="700">iPad Serve Guide</text>
  <text x="110" y="346" fill="#5e6a73" font-family="-apple-system,BlinkMacSystemFont,Segoe UI,sans-serif" font-size="18">1 HTML page</text>
  <rect x="78" y="390" width="264" height="92" rx="16" fill="#ffffff" stroke="#d8e0e4"/>
  <text x="110" y="430" fill="#12202a" font-family="-apple-system,BlinkMacSystemFont,Segoe UI,sans-serif" font-size="23" font-weight="700">GPRC</text>
  <text x="110" y="460" fill="#5e6a73" font-family="-apple-system,BlinkMacSystemFont,Segoe UI,sans-serif" font-size="18">8 HTML pages</text>

  <rect x="430" y="160" width="654" height="520" rx="26" fill="#f7f9f8" stroke="#d8e0e4"/>
  <rect x="480" y="216" width="554" height="64" rx="14" fill="#102b3a"/>
  <text x="512" y="257" fill="#ffffff" font-family="-apple-system,BlinkMacSystemFont,Segoe UI,sans-serif" font-size="22" font-weight="700">Select a complete website folder</text>
  <rect x="482" y="330" width="210" height="142" rx="20" fill="#ffffff" stroke="#d8e0e4"/>
  <path d="M528 382h72l22 25h86v44H528z" fill="#d99a28"/>
  <text x="513" y="523" fill="#12202a" font-family="-apple-system,BlinkMacSystemFont,Segoe UI,sans-serif" font-size="20" font-weight="700">HTML Project</text>
  <rect x="736" y="330" width="210" height="142" rx="20" fill="#ffffff" stroke="#d8e0e4"/>
  <path d="M782 382h72l22 25h86v44H782z" fill="#087987"/>
  <text x="780" y="523" fill="#12202a" font-family="-apple-system,BlinkMacSystemFont,Segoe UI,sans-serif" font-size="20" font-weight="700">From Files</text>
</svg>
