<svg xmlns="http://www.w3.org/2000/svg" width="1200" height="820" viewBox="0 0 1200 820" role="img" aria-labelledby="title desc">
  <title id="title">Running site screenshot</title>
  <desc id="desc">A website running inside iPad Serve with browser controls and a local server address.</desc>
  <rect width="1200" height="820" fill="#f3f7f7"/>
  <rect x="42" y="42" width="1116" height="736" rx="34" fill="#ffffff"/>
  <rect x="42" y="42" width="1116" height="74" rx="34" fill="#102b3a"/>
  <g fill="#ffffff" opacity=".9">
    <circle cx="96" cy="79" r="17"/>
    <circle cx="146" cy="79" r="17"/>
    <circle cx="196" cy="79" r="17"/>
  </g>
  <rect x="282" y="60" width="528" height="38" rx="19" fill="#ffffff" opacity=".14"/>
  <text x="546" y="85" fill="#dbe9ec" font-family="-apple-system,BlinkMacSystemFont,Segoe UI,sans-serif" font-size="16" text-anchor="middle">http://localhost:49231/file/.../index.html</text>
  <rect x="850" y="60" width="210" height="38" rx="19" fill="#087987"/>
  <text x="955" y="85" fill="#ffffff" font-family="-apple-system,BlinkMacSystemFont,Segoe UI,sans-serif" font-size="16" text-anchor="middle" font-weight="700">Server running</text>

  <rect x="78" y="154" width="1044" height="582" rx="24" fill="#0b7887"/>
  <path d="M78 154h1044v582H78z" fill="url(#wash)" opacity=".92"/>
  <defs>
    <linearGradient id="wash" x1="78" y1="154" x2="1122" y2="736" gradientUnits="userSpaceOnUse">
      <stop stop-color="#0c2a3a"/>
      <stop offset=".58" stop-color="#087987"/>
      <stop offset="1" stop-color="#d99a28"/>
    </linearGradient>
  </defs>
  <rect x="128" y="206" width="370" height="52" rx="26" fill="#ffffff" opacity=".18"/>
  <text x="164" y="240" fill="#ffffff" font-family="-apple-system,BlinkMacSystemFont,Segoe UI,sans-serif" font-size="20" font-weight="800">Your HTML project</text>
  <text x="128" y="350" fill="#ffffff" font-family="-apple-system,BlinkMacSystemFont,Segoe UI,sans-serif" font-size="74" font-weight="900">CSS, JS, media.</text>
  <text x="128" y="430" fill="#ffffff" font-family="-apple-system,BlinkMacSystemFont,Segoe UI,sans-serif" font-size="74" font-weight="900">All served locally.</text>
  <text x="132" y="486" fill="#dbe9ec" font-family="-apple-system,BlinkMacSystemFont,Segoe UI,sans-serif" font-size="24">Buttons, modals, charts, links, and videos can run from the copied folder.</text>
  <rect x="132" y="548" width="184" height="54" rx="27" fill="#ffffff"/>
  <text x="224" y="583" fill="#102b3a" font-family="-apple-system,BlinkMacSystemFont,Segoe UI,sans-serif" font-size="18" text-anchor="middle" font-weight="800">Open modal</text>

  <rect x="706" y="220" width="326" height="398" rx="34" fill="#ffffff" opacity=".95"/>
  <rect x="744" y="270" width="250" height="56" rx="18" fill="#102b3a"/>
  <rect x="744" y="360" width="178" height="32" rx="12" fill="#087987"/>
  <rect x="744" y="420" width="226" height="28" rx="10" fill="#d8e0e4"/>
  <rect x="744" y="470" width="196" height="28" rx="10" fill="#d8e0e4"/>
  <rect x="744" y="536" width="112" height="40" rx="20" fill="#d99a28"/>
</svg>
